<svg width="916" height="222" viewBox="0 0 916 222" fill="none" xmlns="http://www.w3.org/2000/svg">
<g clip-path="url(#clip0)">
<path d="M279.92 39.68C289.244 39.68 297.532 41.678 304.784 45.674C312.184 49.67 317.956 55.59 322.1 63.434C326.392 71.278 328.538 80.75 328.538 91.85V164H303.452V95.624C303.452 84.672 300.714 76.31 295.238 70.538C289.762 64.618 282.288 61.658 272.816 61.658C263.344 61.658 255.796 64.618 250.172 70.538C244.696 76.31 241.958 84.672 241.958 95.624V164H216.65V-0.280029H241.958V55.886C246.25 50.706 251.652 46.71 258.164 43.898C264.824 41.086 272.076 39.68 279.92 39.68Z" fill="url(#paint0_linear)"/>
<path d="M470.932 41.678L395.896 221.498H369.7L394.564 162.002L346.39 41.678H374.584L408.994 134.918L444.736 41.678H470.932Z" fill="url(#paint1_linear)"/>
<path d="M519.557 62.324V130.034C519.557 134.622 520.593 137.952 522.665 140.024C524.885 141.948 528.585 142.91 533.765 142.91H549.305V164H529.325C517.929 164 509.197 161.336 503.129 156.008C497.061 150.68 494.027 142.022 494.027 130.034V62.324H479.597V41.678H494.027V11.264H519.557V41.678H549.305V62.324H519.557Z" fill="url(#paint2_linear)"/>
<path d="M635.9 39.68C645.224 39.68 653.512 41.678 660.764 45.674C668.164 49.67 673.936 55.59 678.08 63.434C682.372 71.278 684.518 80.75 684.518 91.85V164H659.432V95.624C659.432 84.672 656.694 76.31 651.218 70.538C645.742 64.618 638.268 61.658 628.796 61.658C619.324 61.658 611.776 64.618 606.152 70.538C600.676 76.31 597.938 84.672 597.938 95.624V164H572.63V-0.280029H597.938V55.886C602.23 50.706 607.632 46.71 614.144 43.898C620.804 41.086 628.056 39.68 635.9 39.68Z" fill="url(#paint3_linear)"/>
<path d="M864.874 39.68C874.494 39.68 883.078 41.678 890.626 45.674C898.322 49.67 904.316 55.59 908.608 63.434C913.048 71.278 915.268 80.75 915.268 91.85V164H890.182V95.624C890.182 84.672 887.444 76.31 881.968 70.538C876.492 64.618 869.018 61.658 859.546 61.658C850.074 61.658 842.526 64.618 836.902 70.538C831.426 76.31 828.688 84.672 828.688 95.624V164H803.602V95.624C803.602 84.672 800.864 76.31 795.388 70.538C789.912 64.618 782.438 61.658 772.966 61.658C763.494 61.658 755.946 64.618 750.322 70.538C744.846 76.31 742.108 84.672 742.108 95.624V164H716.8V41.678H742.108V55.664C746.252 50.632 751.506 46.71 757.87 43.898C764.234 41.086 771.042 39.68 778.294 39.68C788.062 39.68 796.794 41.752 804.49 45.896C812.186 50.04 818.106 56.034 822.25 63.878C825.95 56.478 831.722 50.632 839.566 46.34C847.41 41.9 855.846 39.68 864.874 39.68Z" fill="url(#paint4_linear)"/>
<path d="M87.8867 85.4542H108.168V105.618H87.8867V85.4542Z" fill="url(#paint5_linear)"/>
<path d="M87.8867 114.259H108.168V134.422H87.8867V114.259Z" fill="url(#paint6_linear)"/>
<path d="M87.8867 144.024H108.168V164.187H87.8867V144.024Z" fill="url(#paint7_linear)"/>
<path d="M87.8867 55.6892H108.168V75.8526H87.8867V55.6892Z" fill="url(#paint8_linear)"/>
<path d="M87.8868 26.8844H108.168V47.0478H87.8868V26.8844Z" fill="url(#paint9_linear)"/>
<path d="M57.9474 85.4541H78.229V105.617H57.9474V85.4541Z" fill="url(#paint10_linear)"/>
<path d="M57.9474 114.259H78.229V134.422H57.9474V114.259Z" fill="url(#paint11_linear)"/>
<path d="M57.9474 144.024H78.229V164.187H57.9474V144.024Z" fill="url(#paint12_linear)"/>
<path d="M57.9474 55.6892H78.229V75.8526H57.9474V55.6892Z" fill="url(#paint13_linear)"/>
<path d="M57.9474 26.8844H78.229V47.0478H57.9474V26.8844Z" fill="url(#paint14_linear)"/>
<path d="M28.9736 55.6892H49.2552V75.8526H28.9736V55.6892Z" fill="url(#paint15_linear)"/>
<path d="M0 115.219H20.2816V135.382H0V115.219Z" fill="url(#paint16_linear)"/>
<path d="M28.9736 115.219H49.2552V135.382H28.9736V115.219Z" fill="url(#paint17_linear)"/>
<path d="M57.9474 20.1633V-2.71797e-05H112.032C145.207 0.169034 157.669 2.44074 173.359 10.0816C188.698 19.139 194.003 25.4315 197.987 38.8864C201.491 51.5485 199.821 57.5454 197.504 68.1713C188.785 90.8947 178.782 96.9246 157.907 103.697C171.392 130.59 178.17 140.271 188.329 144.504C190.261 144.984 199.919 144.504 199.919 144.504V164.667C199.919 164.667 187.363 164.951 183.983 164.187C163.946 159.658 153.866 143.52 136.659 105.617H115.412V85.4541H141.488C157.907 84.494 167.082 80.1733 175.774 67.6912C180.603 53.7689 181.086 49.4482 176.257 38.8864C167.082 25.9243 152.658 21.0972 112.032 20.1633H57.9474Z" fill="url(#paint18_linear)"/>
</g>
<defs>
<linearGradient id="paint0_linear" x1="-1.17502e-06" y1="111" x2="915" y2="111" gradientUnits="userSpaceOnUse">
<stop offset="0.0748982" stop-color="#A77AA6"/>
<stop offset="0.107154" stop-color="#D02577"/>
<stop offset="0.218465" stop-color="#D02577"/>
<stop offset="0.236836" stop-color="#A77AA6"/>
</linearGradient>
<linearGradient id="paint1_linear" x1="-1.17502e-06" y1="111" x2="915" y2="111" gradientUnits="userSpaceOnUse">
<stop offset="0.0748982" stop-color="#A77AA6"/>
<stop offset="0.107154" stop-color="#D02577"/>
<stop offset="0.218465" stop-color="#D02577"/>
<stop offset="0.236836" stop-color="#A77AA6"/>
</linearGradient>
<linearGradient id="paint2_linear" x1="-1.17502e-06" y1="111" x2="915" y2="111" gradientUnits="userSpaceOnUse">
<stop offset="0.0748982" stop-color="#A77AA6"/>
<stop offset="0.107154" stop-color="#D02577"/>
<stop offset="0.218465" stop-color="#D02577"/>
<stop offset="0.236836" stop-color="#A77AA6"/>
</linearGradient>
<linearGradient id="paint3_linear" x1="-1.17502e-06" y1="111" x2="915" y2="111" gradientUnits="userSpaceOnUse">
<stop offset="0.0748982" stop-color="#A77AA6"/>
<stop offset="0.107154" stop-color="#D02577"/>
<stop offset="0.218465" stop-color="#D02577"/>
<stop offset="0.236836" stop-color="#A77AA6"/>
</linearGradient>
<linearGradient id="paint4_linear" x1="-1.17502e-06" y1="111" x2="915" y2="111" gradientUnits="userSpaceOnUse">
<stop offset="0.0748982" stop-color="#A77AA6"/>
<stop offset="0.107154" stop-color="#D02577"/>
<stop offset="0.218465" stop-color="#D02577"/>
<stop offset="0.236836" stop-color="#A77AA6"/>
</linearGradient>
<linearGradient id="paint5_linear" x1="-1.17502e-06" y1="111" x2="915" y2="111" gradientUnits="userSpaceOnUse">
<stop offset="0.0748982" stop-color="#A77AA6"/>
<stop offset="0.107154" stop-color="#D02577"/>
<stop offset="0.218465" stop-color="#D02577"/>
<stop offset="0.236836" stop-color="#A77AA6"/>
</linearGradient>
<linearGradient id="paint6_linear" x1="-1.17502e-06" y1="111" x2="915" y2="111" gradientUnits="userSpaceOnUse">
<stop offset="0.0748982" stop-color="#A77AA6"/>
<stop offset="0.107154" stop-color="#D02577"/>
<stop offset="0.218465" stop-color="#D02577"/>
<stop offset="0.236836" stop-color="#A77AA6"/>
</linearGradient>
<linearGradient id="paint7_linear" x1="-1.17502e-06" y1="111" x2="915" y2="111" gradientUnits="userSpaceOnUse">
<stop offset="0.0748982" stop-color="#A77AA6"/>
<stop offset="0.107154" stop-color="#D02577"/>
<stop offset="0.218465" stop-color="#D02577"/>
<stop offset="0.236836" stop-color="#A77AA6"/>
</linearGradient>
<linearGradient id="paint8_linear" x1="-1.17502e-06" y1="111" x2="915" y2="111" gradientUnits="userSpaceOnUse">
<stop offset="0.0748982" stop-color="#A77AA6"/>
<stop offset="0.107154" stop-color="#D02577"/>
<stop offset="0.218465" stop-color="#D02577"/>
<stop offset="0.236836" stop-color="#A77AA6"/>
</linearGradient>
<linearGradient id="paint9_linear" x1="-1.17502e-06" y1="111" x2="915" y2="111" gradientUnits="userSpaceOnUse">
<stop offset="0.0748982" stop-color="#A77AA6"/>
<stop offset="0.107154" stop-color="#D02577"/>
<stop offset="0.218465" stop-color="#D02577"/>
<stop offset="0.236836" stop-color="#A77AA6"/>
</linearGradient>
<linearGradient id="paint10_linear" x1="-1.17502e-06" y1="111" x2="915" y2="111" gradientUnits="userSpaceOnUse">
<stop offset="0.0748982" stop-color="#A77AA6"/>
<stop offset="0.107154" stop-color="#D02577"/>
<stop offset="0.218465" stop-color="#D02577"/>
<stop offset="0.236836" stop-color="#A77AA6"/>
</linearGradient>
<linearGradient id="paint11_linear" x1="-1.17502e-06" y1="111" x2="915" y2="111" gradientUnits="userSpaceOnUse">
<stop offset="0.0748982" stop-color="#A77AA6"/>
<stop offset="0.107154" stop-color="#D02577"/>
<stop offset="0.218465" stop-color="#D02577"/>
<stop offset="0.236836" stop-color="#A77AA6"/>
</linearGradient>
<linearGradient id="paint12_linear" x1="-1.17502e-06" y1="111" x2="915" y2="111" gradientUnits="userSpaceOnUse">
<stop offset="0.0748982" stop-color="#A77AA6"/>
<stop offset="0.107154" stop-color="#D02577"/>
<stop offset="0.218465" stop-color="#D02577"/>
<stop offset="0.236836" stop-color="#A77AA6"/>
</linearGradient>
<linearGradient id="paint13_linear" x1="-1.17502e-06" y1="111" x2="915" y2="111" gradientUnits="userSpaceOnUse">
<stop offset="0.0748982" stop-color="#A77AA6"/>
<stop offset="0.107154" stop-color="#D02577"/>
<stop offset="0.218465" stop-color="#D02577"/>
<stop offset="0.236836" stop-color="#A77AA6"/>
</linearGradient>
<linearGradient id="paint14_linear" x1="-1.17502e-06" y1="111" x2="915" y2="111" gradientUnits="userSpaceOnUse">
<stop offset="0.0748982" stop-color="#A77AA6"/>
<stop offset="0.107154" stop-color="#D02577"/>
<stop offset="0.218465" stop-color="#D02577"/>
<stop offset="0.236836" stop-color="#A77AA6"/>
</linearGradient>
<linearGradient id="paint15_linear" x1="-1.17502e-06" y1="111" x2="915" y2="111" gradientUnits="userSpaceOnUse">
<stop offset="0.0748982" stop-color="#A77AA6"/>
<stop offset="0.107154" stop-color="#D02577"/>
<stop offset="0.218465" stop-color="#D02577"/>
<stop offset="0.236836" stop-color="#A77AA6"/>
</linearGradient>
<linearGradient id="paint16_linear" x1="-1.17502e-06" y1="111" x2="915" y2="111" gradientUnits="userSpaceOnUse">
<stop offset="0.0748982" stop-color="#A77AA6"/>
<stop offset="0.107154" stop-color="#D02577"/>
<stop offset="0.218465" stop-color="#D02577"/>
<stop offset="0.236836" stop-color="#A77AA6"/>
</linearGradient>
<linearGradient id="paint17_linear" x1="-1.17502e-06" y1="111" x2="915" y2="111" gradientUnits="userSpaceOnUse">
<stop offset="0.0748982" stop-color="#A77AA6"/>
<stop offset="0.107154" stop-color="#D02577"/>
<stop offset="0.218465" stop-color="#D02577"/>
<stop offset="0.236836" stop-color="#A77AA6"/>
</linearGradient>
<linearGradient id="paint18_linear" x1="-1.17502e-06" y1="111" x2="915" y2="111" gradientUnits="userSpaceOnUse">
<stop offset="0.0748982" stop-color="#A77AA6"/>
<stop offset="0.107154" stop-color="#D02577"/>
<stop offset="0.218465" stop-color="#D02577"/>
<stop offset="0.236836" stop-color="#A77AA6"/>
</linearGradient>
<clipPath id="clip0">
<rect width="916" height="222" rx="10" fill="white"/>
</clipPath>
</defs>
</svg>
