<svg width="200" height="200" viewBox="0 0 200 200" fill="none" xmlns="http://www.w3.org/2000/svg">
<path d="M87.8867 103.454H108.168V123.618H87.8867V103.454Z" fill="url(#paint0_linear)"/>
<path d="M87.8867 132.259H108.168V152.422H87.8867V132.259Z" fill="url(#paint1_linear)"/>
<path d="M87.8867 162.024H108.168V182.187H87.8867V162.024Z" fill="url(#paint2_linear)"/>
<path d="M87.8867 73.6892H108.168V93.8526H87.8867V73.6892Z" fill="url(#paint3_linear)"/>
<path d="M87.8868 44.8845H108.168V65.0478H87.8868V44.8845Z" fill="url(#paint4_linear)"/>
<path d="M57.9474 103.454H78.229V123.618H57.9474V103.454Z" fill="url(#paint5_linear)"/>
<path d="M57.9474 132.259H78.229V152.422H57.9474V132.259Z" fill="url(#paint6_linear)"/>
<path d="M57.9474 162.024H78.229V182.187H57.9474V162.024Z" fill="url(#paint7_linear)"/>
<path d="M57.9474 73.6892H78.229V93.8526H57.9474V73.6892Z" fill="url(#paint8_linear)"/>
<path d="M57.9474 44.8845H78.229V65.0478H57.9474V44.8845Z" fill="url(#paint9_linear)"/>
<path d="M28.9737 73.6892H49.2553V93.8526H28.9737V73.6892Z" fill="url(#paint10_linear)"/>
<path d="M0 133.219H20.2816V153.382H0V133.219Z" fill="url(#paint11_linear)"/>
<path d="M28.9737 133.219H49.2553V153.382H28.9737V133.219Z" fill="url(#paint12_linear)"/>
<path d="M57.9474 38.1633V18H112.032C145.207 18.1691 157.669 20.4408 173.359 28.0817C188.698 37.139 194.003 43.4315 197.987 56.8864C201.491 69.5485 199.821 75.5454 197.504 86.1713C188.785 108.895 178.782 114.925 157.907 121.697C171.392 148.59 178.17 158.271 188.329 162.504C190.261 162.984 199.919 162.504 199.919 162.504V182.667C199.919 182.667 187.363 182.951 183.983 182.187C163.946 177.658 153.866 161.52 136.659 123.618H115.412V103.454H141.488C157.907 102.494 167.082 98.1733 175.774 85.6912C180.603 71.7689 181.086 67.4482 176.257 56.8864C167.082 43.9243 152.658 39.0973 112.032 38.1633H57.9474Z" fill="url(#paint13_linear)"/>
<defs>
<linearGradient id="paint0_linear" x1="57.9475" y1="28.0817" x2="112.998" y2="28.0817" gradientUnits="userSpaceOnUse">
<stop offset="0.172866" stop-color="#6A4E69"/>
<stop offset="0.761399" stop-color="#D02577"/>
</linearGradient>
<linearGradient id="paint1_linear" x1="57.9475" y1="28.0817" x2="112.998" y2="28.0817" gradientUnits="userSpaceOnUse">
<stop offset="0.172866" stop-color="#6A4E69"/>
<stop offset="0.761399" stop-color="#D02577"/>
</linearGradient>
<linearGradient id="paint2_linear" x1="57.9475" y1="28.0817" x2="112.998" y2="28.0817" gradientUnits="userSpaceOnUse">
<stop offset="0.172866" stop-color="#6A4E69"/>
<stop offset="0.761399" stop-color="#D02577"/>
</linearGradient>
<linearGradient id="paint3_linear" x1="57.9475" y1="28.0817" x2="112.998" y2="28.0817" gradientUnits="userSpaceOnUse">
<stop offset="0.172866" stop-color="#6A4E69"/>
<stop offset="0.761399" stop-color="#D02577"/>
</linearGradient>
<linearGradient id="paint4_linear" x1="57.9475" y1="28.0817" x2="112.998" y2="28.0817" gradientUnits="userSpaceOnUse">
<stop offset="0.172866" stop-color="#6A4E69"/>
<stop offset="0.761399" stop-color="#D02577"/>
</linearGradient>
<linearGradient id="paint5_linear" x1="57.9475" y1="28.0817" x2="112.998" y2="28.0817" gradientUnits="userSpaceOnUse">
<stop offset="0.172866" stop-color="#6A4E69"/>
<stop offset="0.761399" stop-color="#D02577"/>
</linearGradient>
<linearGradient id="paint6_linear" x1="57.9475" y1="28.0817" x2="112.998" y2="28.0817" gradientUnits="userSpaceOnUse">
<stop offset="0.172866" stop-color="#6A4E69"/>
<stop offset="0.761399" stop-color="#D02577"/>
</linearGradient>
<linearGradient id="paint7_linear" x1="57.9475" y1="28.0817" x2="112.998" y2="28.0817" gradientUnits="userSpaceOnUse">
<stop offset="0.172866" stop-color="#6A4E69"/>
<stop offset="0.761399" stop-color="#D02577"/>
</linearGradient>
<linearGradient id="paint8_linear" x1="57.9475" y1="28.0817" x2="112.998" y2="28.0817" gradientUnits="userSpaceOnUse">
<stop offset="0.172866" stop-color="#6A4E69"/>
<stop offset="0.761399" stop-color="#D02577"/>
</linearGradient>
<linearGradient id="paint9_linear" x1="57.9475" y1="28.0817" x2="112.998" y2="28.0817" gradientUnits="userSpaceOnUse">
<stop offset="0.172866" stop-color="#6A4E69"/>
<stop offset="0.761399" stop-color="#D02577"/>
</linearGradient>
<linearGradient id="paint10_linear" x1="57.9475" y1="28.0817" x2="112.998" y2="28.0817" gradientUnits="userSpaceOnUse">
<stop offset="0.172866" stop-color="#6A4E69"/>
<stop offset="0.761399" stop-color="#D02577"/>
</linearGradient>
<linearGradient id="paint11_linear" x1="57.9475" y1="28.0817" x2="112.998" y2="28.0817" gradientUnits="userSpaceOnUse">
<stop offset="0.172866" stop-color="#6A4E69"/>
<stop offset="0.761399" stop-color="#D02577"/>
</linearGradient>
<linearGradient id="paint12_linear" x1="57.9475" y1="28.0817" x2="112.998" y2="28.0817" gradientUnits="userSpaceOnUse">
<stop offset="0.172866" stop-color="#6A4E69"/>
<stop offset="0.761399" stop-color="#D02577"/>
</linearGradient>
<linearGradient id="paint13_linear" x1="57.9475" y1="28.0817" x2="112.998" y2="28.0817" gradientUnits="userSpaceOnUse">
<stop offset="0.172866" stop-color="#6A4E69"/>
<stop offset="0.761399" stop-color="#D02577"/>
</linearGradient>
</defs>
</svg>
