<svg viewBox="0 0 300 300" fill="none" xmlns="http://www.w3.org/2000/svg">
	<circle cx="750" cy="150" r="145" stroke="#6A4E69" stroke-width="10"/>
	<rect x="770" y="76" width="30" height="150" rx="12" fill="#6A4E69"/>
	<rect x="700" y="76" width="30" height="150" rx="12" fill="#6A4E69"/>
	<circle cx="450" cy="151" r="145" stroke="#6A4E69" stroke-width="10"/>
	<path d="M521.5 149.402C523.5 150.557 523.5 153.443 521.5 154.598L418 214.354C416 215.509 413.5 214.065 413.5 211.756V92.2443C413.5 89.9348 416 88.4915 418 89.6462L521.5 149.402Z" fill="#6A4E69"/>
	<path d="M220.5 149.402C222.5 150.557 222.5 153.443 220.5 154.598L117 214.354C115 215.509 112.5 214.065 112.5 211.756L112.5 92.2443C112.5 89.9348 115 88.4915 117 89.6462L220.5 149.402Z" fill="#C8C8C8"/>
	<circle cx="150" cy="150" r="145" stroke="url(#paint0_linear)" stroke-width="10">
		<animateTransform attributeName="transform" type="rotate" begin="0s" dur="1s" from="0 150 150" to="360 150 150" repeatCount="indefinite"/>
	</circle>
	<defs>
		<linearGradient id="paint0_linear" x1="150" y1="0" x2="150" y2="300" gradientUnits="userSpaceOnUse">
			<stop offset="0.285558" stop-color="white"/>
			<stop offset="0.643663" stop-color="#A77AA6"/>
			<stop offset="0.83098" stop-color="#D02577"/>
		</linearGradient>
	</defs>
</svg>
